<svg
      version="1.2"
      xmlns="http://www.w3.org/2000/svg"
      viewBox="40 -40 404 424"
      width="484"
      height="484"
    >
      <g id="Layer 1">
        <path
          id="Path 1"
          fill-rule="evenodd"
          fill="#94d4eb"
          class="s0"
          d="m408.5 4.65c1.1 0.31 3.01 1.19 4.25 1.95 1.24 0.77 2.48 2.75 2.75 4.4 0.27 1.65-0.11 4.24-0.86 5.75-0.75 1.51-2.1 3.09-3 3.5-0.9 0.41-2.99 0.75-4.64 0.75-1.65 0-4.13-0.68-5.5-1.5-2.36-1.42-3.45-1.13-19.25 5.1-9.21 3.63-22.82 9.29-30.25 12.57-7.43 3.28-14.4 6.53-15.5 7.23-1.1 0.7-3.08 4.15-4.39 7.68-1.32 3.53-3.87 9.57-5.67 13.42-1.8 3.85-4.01 8.8-4.91 11-1.38 3.41-1.59 8.16-1.44 32 0.11 15.4-0.1 28.56-0.45 29.25-0.35 0.69-3.23 2.42-6.39 3.86-3.16 1.43-16.1 6.85-28.75 12.03-12.65 5.19-40.1 16.23-61 24.53-20.9 8.31-38.45 15.45-39 15.88-0.59 0.46-1.33 12.57-1.81 29.61-0.55 19.74-0.47 29.71 0.25 31.59 0.72 1.85 0.73 3.4 0.06 4.75-0.55 1.1-1.9 2.23-3 2.5-1.1 0.27-2.9 0.05-4-0.5-1.1-0.55-2.22-1.9-2.5-3-0.28-1.1 0.06-3.01 0.75-4.25 0.96-1.72 1.13-9.54 0.75-33.25-0.28-17.05-0.12-31.45 0.33-32 0.46-0.55 7.89-3.84 16.5-7.3 8.62-3.47 31.87-12.77 51.67-20.68 19.8-7.9 41.63-16.7 48.5-19.54 6.87-2.84 14.2-6.13 20.05-9.48l0.13-25.5c0.07-14.03 0.03-26.18-0.1-27-0.14-0.83-0.48-2.85-0.76-4.5-0.32-1.84 0-3.48 0.83-4.25 0.74-0.68 2.25-1.3 3.35-1.38 1.1-0.07 2.68 0.18 3.5 0.56 1.16 0.53 2.56-1.67 6.14-9.62 2.55-5.67 5.11-12.11 6.74-18.31l24.81-10.67c13.65-5.87 28.36-12.17 32.71-14 4.34-1.83 8.09-4.01 8.34-4.83 0.24-0.83 0.96-2.58 1.6-3.9 0.64-1.32 2.51-2.99 4.16-3.71 1.65-0.71 3.9-1.04 5-0.74zm-166.25 5.38c1.65-0.02 9.07 3.52 18.5 8.82 8.66 4.87 20.93 11.71 27.25 15.19 6.32 3.49 12.85 7 14.5 7.81 1.65 0.81 4.24 2.29 5.75 3.31 1.51 1.01 2.75 2.74 2.75 3.84 0 1.1-1.13 2.67-2.5 3.5-2.41 1.45-3.3 1.06-24.75-10.89-12.24-6.82-26.52-14.75-31.75-17.63-8.57-4.73-9.74-5.12-12-4.02-1.38 0.68-13.53 7.33-27 14.78-13.47 7.45-31.93 17.6-41 22.56-9.07 4.95-16.72 9.17-17 9.37-0.28 0.2 0.96 1.82 2.73 3.59 2.07 2.07 3.24 4.24 3.25 5.99 0.01 1.58 1.08 3.81 2.52 5.25 1.37 1.37 2.52 3.06 2.53 3.75 0.02 0.69-0.88 2.49-2 4-1.83 2.48-1.98 3.77-1.49 13 0.3 5.64 0.64 18.13 0.96 45.25l-6.5 3.27c-3.57 1.8-7.63 3.28-9 3.29-1.38 0-3.63 0.65-5 1.44-1.38 0.79-4.19 1.45-6.25 1.46-3.06 0.03-3.84 0.45-4.24 2.29-0.26 1.24-0.48 6.3-0.47 11.25 0.02 8.6-0.13 9.2-3.26 13.48-1.8 2.47-4.86 6.84-6.78 9.72-1.92 2.88-8.11 10.88-24 30.3v6c0 5.33-0.28 6.17-2.5 7.5-1.82 1.09-3.05 1.23-4.5 0.5-1.43-0.71-2-2-2-4.5q0-3.51-1.25-3.1c-0.69 0.21-8.13 3.7-16.53 7.75-13.06 6.28-15.28 7.68-15.25 9.6 0.02 1.24-0.98 3.16-2.22 4.27-1.24 1.11-3.49 2.01-5 2-1.51-0.01-3.65-0.92-4.75-2.02-1.1-1.1-2-3.13-2-4.5 0-1.38 0.9-3.4 2-4.5 1.1-1.1 3.13-2 4.5-2 1.38 0 3.29 0.43 4.25 0.96 1.34 0.74 5.51-0.77 17.75-6.44 8.8-4.07 16.9-8.48 18-9.79 1.1-1.31 3.01-2.68 4.25-3.06 1.24-0.37 5.74-4.65 10-9.5 4.26-4.86 9.58-11.28 11.81-14.25 2.23-2.98 6.39-8.68 14.44-19.92v-14.5c0-13.17 0.18-14.68 2-16.5 1.19-1.19 3.31-1.99 5.25-1.98 1.93 0.01 4.06 0.85 7.25 4.1l12.5-6.12 0.01-13.75c0-10.33 0.38-14.5 1.53-16.75 1.05-2.06 1.52-5.97 1.52-12.5 0-8.29-0.26-9.75-2.06-11.5-1.14-1.1-2.07-2.9-2.07-4 0-1.1 0.93-2.9 2.07-4 1.14-1.1 2.05-3.24 2.03-4.75-0.02-1.95-1.07-3.55-7.14-8.25l-8.7 4.69c-4.78 2.58-12.97 7.19-18.19 10.24-5.22 3.06-13.44 7.59-27 14.57v87l-2.57 1.25c-1.9 0.93-3 0.96-4.25 0.14-1.42-0.93-1.72-3.28-2.18-29.39l-46.5 23.99-2.56 6.75c-1.41 3.72-2.88 8-3.25 9.51-0.55 2.21-0.2 3.14 1.81 4.75 1.37 1.1 2.5 2.9 2.5 4 0 1.92 0.57 1.99 13.75 1.71 12.9-0.26 14.25-0.48 21.75-3.55 4.4-1.8 9.69-4.37 11.75-5.71 2.06-1.35 4.31-2.44 5-2.42 0.69 0.01 2.05 0.8 3.03 1.75 0.98 0.94 1.76 2.62 1.73 3.72-0.03 1.1-0.84 2.8-1.79 3.78-0.94 0.98-2.62 1.76-3.72 1.73-1.1-0.03-2.9-0.95-4-2.04-2-1.99-2.01-1.99-12 2-9.74 3.88-10.32 3.99-22.25 4.01-10.73 0.02-12.59 0.27-15 2.05-1.51 1.12-3.76 2.02-5 2-1.24-0.01-3.15-0.48-4.25-1.03-1.1-0.55-2.45-2.12-3-3.5-0.66-1.64-0.66-3.44-0.02-5.25 0.54-1.51 2.11-3.43 3.5-4.25 1.92-1.14 3.4-4.03 9.77-22.5l21.47-11c11.81-6.05 22.78-11.79 27.28-14.5v-28c0-20.39 0.34-28.68 1.25-30.52 0.83-1.66 5.06-4.54 12.5-8.5 6.19-3.29 11.46-6.32 11.72-6.73 0.26-0.41-0.76-1.92-2.25-3.36-1.5-1.43-5.19-4.42-13.72-10.67l-13.78-0.31c-9.72-0.21-14.12 0.05-14.95 0.9-0.64 0.65-2.43 1.19-3.97 1.19-1.54 0-3.7-0.9-4.8-2-1.16-1.16-2.01-3.37-2.03-5.25-0.02-1.89 0.71-3.92 1.75-4.85 0.98-0.88 2.57-1.89 3.53-2.25 0.96-0.36 3.1 0.02 4.75 0.85 1.88 0.94 3.28 2.6 3.75 4.45 0.57 2.24 1.47 3.09 3.75 3.51 1.65 0.31 7.39 0.56 12.75 0.55 9.52-0.01 9.84 0.07 13.76 3.24 2.2 1.79 6.48 5.16 14.99 11.75l12.5-6.5c6.87-3.58 12.34-6.84 12.14-7.25-0.2-0.41-6.84-5.97-14.75-12.35-13.87-11.17-14.53-11.58-18.39-11.12-3.36 0.4-4.28 0.1-5.76-1.9-0.96-1.31-1.77-3.05-1.78-3.88-0.02-0.83 0.89-2.74 2.01-4.25 1.27-1.72 2.96-2.75 4.53-2.75 1.37 0 3.46 1.01 4.63 2.25 1.3 1.37 1.98 3.16 1.75 4.59-0.29 1.76 0.75 3.37 4.2 6.5 2.52 2.29 9.6 8.1 26.92 21.66l11.75-6.59c6.46-3.62 18.95-10.56 27.75-15.4 8.8-4.85 24.55-13.57 35-19.39 10.97-6.1 20.16-10.58 21.75-10.59zm147.5 29.03c0.69-0.03 2.49 0.55 4 1.3 1.51 0.75 3.09 2.1 3.5 3 0.41 0.9 0.75 2.76 0.75 4.14 0 1.37-1.1 3.62-2.45 5-1.65 1.68-3.54 2.49-5.75 2.48-2.03-0.01-4.2-0.88-7.95-4.48l-11.18 3.87c-6.14 2.13-12.41 4.72-13.92 5.75-1.51 1.04-2.75 2.78-2.75 3.88 0 1.1-0.91 4.36-2.02 7.25-1.11 2.89-2.58 5.58-3.25 5.98-0.68 0.41-1.79 0.75-2.48 0.75-0.69 0.01-2.15-0.88-3.25-1.98-1.1-1.1-2-3.13-2-4.5 0-1.81 0.97-3.05 3.5-4.5 3.04-1.74 3.49-2.49 3.46-5.75-0.03-2.06 0.55-4.27 1.28-4.9 0.72-0.63 3.78-1.61 6.79-2.17 3.01-0.56 9.86-2.41 15.22-4.1 8.34-2.63 10-3.52 11.46-6.13 0.93-1.68 2.62-3.45 3.75-3.94 1.12-0.48 2.6-0.91 3.29-0.95zm-174.68 23.94c1.06 0 2.61 0.67 3.43 1.5 0.82 0.82 1.55 2.06 1.62 2.75 0.06 0.69 0.02 1.92-0.09 2.75-0.12 0.82-0.84 2.17-1.6 3-1.17 1.26-1.25 6.35-0.49 31.5 0.49 16.5 1.2 31.35 1.56 33 0.5 2.22 0.19 3.47-1.16 4.8-1.01 0.99-2.69 1.67-3.73 1.5-1.05-0.16-2.85-1.51-4-3-1.98-2.52-2.01-2.84-0.48-5 1.3-1.84 1.75-6.1 2.25-21.3 0.35-10.45 0.87-23.5 1.17-29 0.49-8.9 0.34-10.22-1.35-12-1.05-1.1-2.19-2.79-2.55-3.75-0.4-1.07 0.15-2.72 1.42-4.25 1.13-1.38 2.93-2.5 4-2.5zm172.23 0.91c1.1 0.33 2.61 1.49 3.36 2.59 0.75 1.1 1.37 2.67 1.38 3.5 0.02 0.83-0.89 2.74-2.01 4.25-1.16 1.57-2.99 2.75-4.28 2.76-1.24 0-3.3-0.79-4.58-1.75-2.28-1.72-2.4-1.69-5.5 1.44-1.74 1.75-4.96 6.48-7.14 10.5-3.86 7.11-3.98 7.62-5.15 32.3l-6.86 8c-3.78 4.4-10.05 11.56-13.94 15.9-3.89 4.35-10.45 10.44-22.08 19.17l-0.25 28.72c-0.21 24.48-0.47 28.78-1.75 29.21-1.19 0.4-1.5 2.44-1.5 10 0 8.93 0.15 9.62 2.5 11.5 1.38 1.1 2.5 2.9 2.5 4 0 1.1-1.12 2.9-2.5 4-1.51 1.21-3.19 1.74-4.25 1.35-0.96-0.36-2.55-1.37-3.53-2.25-0.98-0.88-1.79-2.28-1.79-3.1 0-0.82 0.95-2.4 2.11-3.5 1.97-1.87 2.07-2.69 1.49-12.5-0.34-5.78-0.82-24.11-1.08-40.75-0.28-19.11-0.08-30.99 0.55-32.25 0.55-1.1 3.81-3.56 7.25-5.46 3.79-2.09 9.43-6.73 14.32-11.75 4.45-4.56 10.87-11.44 20.5-22.29l-0.02-12c-0.01-6.6 0.31-12.49 0.72-13.1 0.4-0.6 1.86-1.38 3.23-1.74q2.5-0.65 4.49-4.9c1.09-2.34 5.05-7.18 8.78-10.76 3.74-3.58 7.01-7.29 7.26-8.25 0.26-0.96 1.66-2.13 3.12-2.59 1.46-0.46 3.55-0.57 4.65-0.25zm-190.3 4.15c0.28-0.04 1.51 0.6 2.75 1.43 1.39 0.94 2.27 2.56 2.29 4.26 0.03 1.51-0.71 3.42-1.63 4.25-1.46 1.3-1.59 2.79-0.98 11 0.38 5.22 1.06 20.97 1.5 35 0.8 25.24 0.79 25.52-1.31 27.29-1.17 0.99-2.34 1.79-2.62 1.79-0.27 0-1.45-0.8-2.61-1.79-2.08-1.77-2.1-2.05-1.24-27.79 0.47-14.3 1.11-30.05 1.41-35 0.5-8.29 0.38-9.16-1.59-11-1.69-1.57-1.98-2.6-1.38-4.79 0.43-1.54 1.71-3.2 2.84-3.69 1.14-0.49 2.3-0.93 2.57-0.96zm100.27 2.91c1.23-0.02 3.05 0.77 4.05 1.75 1.33 1.3 1.68 2.72 1.3 5.28-0.28 1.92-0.65 13.67-0.82 26.1-0.2 14.83-0.69 23.08-1.43 24-0.62 0.77-14.57 6.75-31 13.28-16.43 6.53-43.82 17.39-60.87 24.12-17.05 6.73-33.83 13.31-43.57 17l-0.09 19c-0.05 10.45-0.37 23.72-1.34 40l-9.11 4.5c-5.01 2.47-9.91 5.18-10.89 6-0.98 0.82-3.35 3.98-5.27 7-1.93 3.02-3.78 6.26-4.11 7.2-0.34 0.93-2.87 4.96-5.62 8.94-2.75 3.99-6.87 9.07-9.15 11.3-3.48 3.41-4.06 4.54-3.64 7.06 0.28 1.65-0.11 4.01-0.85 5.25-0.75 1.23-2.37 2.69-3.61 3.25-1.24 0.55-3.26 0.72-4.5 0.38-1.24-0.34-3.05-1.35-4.03-2.25-1.07-0.97-1.78-3.04-1.78-5.13 0.01-2.43 0.79-4.26 2.57-6 2.22-2.17 3.09-2.4 6.53-1.75 3.89 0.74 4.05 0.65 8.96-5 2.76-3.16 6.82-8.45 9.03-11.75 2.45-3.66 4.46-8.15 5.15-11.5 0.62-3.02 2.17-7.53 3.46-10 1.95-3.77 3.68-5.25 18.86-13.68l0.56-56.82 6.22-2.33c3.42-1.29 11.4-4.6 17.72-7.38 6.33-2.77 20.28-8.64 31-13.05 10.73-4.41 25.8-10.4 33.5-13.31 7.7-2.91 21.88-8.41 49-19.18l0.27-20.88c0.15-12.23-0.16-22.11-0.75-23.87-0.79-2.32-0.67-3.51 0.5-5.25 0.84-1.24 2.52-2.26 3.75-2.28zm-119.02 3.02c0.69 0 2.26 0.67 3.5 1.5q2.25 1.51 2.25 4.51c0 1.94-0.72 3.44-2.03 4.25-1.83 1.13-1.99 2.05-1.63 9.75 0.22 4.67 0.95 18.62 1.63 31 0.68 12.37 0.97 24.86 0.03 33l-7.75 3.54c-4.26 1.95-8.87 4.14-10.25 4.87-1.37 0.72-3.85 1.63-5.5 2.01-1.65 0.39-5.43 0.34-8.41-0.11-4.02-0.6-5.76-1.39-6.75-3.06-1.13-1.9-1.11-2.63 0.16-4.75 1.07-1.78 2.37-2.5 4.5-2.5 2.01 0 3.49 0.74 5.94 4.5l7.28-3.39c4-1.86 8.74-4.22 13.78-7.11v-21.5c0-13.33 0.38-21.69 1-22 0.58-0.29 1-5.17 1-11.5 0-9.49-0.28-11.38-2.03-13.75-1.12-1.51-2.02-3.31-2-4 0.01-0.69 0.93-2.15 2.03-3.25 1.1-1.1 2.56-2 3.25-2.01zm159.96 0.6c0.55 0.29 0.95 3.65 0.89 7.47-0.09 6 0.17 7.08 1.9 7.94 1.1 0.55 2.23 1.9 2.5 3 0.27 1.1 0.27 2.9 0 4-0.27 1.1-1.85 2.67-3.5 3.5-2.56 1.28-3.4 1.3-5.75 0.14-1.51-0.75-3.09-2.1-3.5-3-0.41-0.9-0.3-2.77 0.25-4.14 0.55-1.38 1.9-2.95 3-3.5 1.73-0.87 1.98-1.91 1.83-7.83-0.09-3.76 0.19-7.12 0.61-7.48 0.43-0.35 1.22-0.4 1.77-0.1zm80.94 2.41c1.95 0 3.49 0.87 4.88 2.75 1.12 1.51 2.04 3.2 2.04 3.75 0 0.55-0.92 2.24-2.04 3.75-1.43 1.94-2.92 2.75-5.03 2.75-1.65 0-3.67-0.68-4.5-1.5-0.82-0.83-2.51-1.3-3.75-1.05-1.24 0.25-5.53 1.94-9.53 3.75-4.01 1.82-6.93 3.67-6.5 4.13 0.43 0.46 0.62 19.14 0.08 82.17l3.85 2.99c2.12 1.65 10.04 8.29 17.6 14.75 12.98 11.1 13.9 11.7 16.5 10.72 1.9-0.72 3.6-0.72 5.5 0 1.51 0.57 3.46 2.05 4.33 3.29 0.98 1.4 1.36 3.28 1 5-0.32 1.51-1.59 3.66-2.83 4.77-1.24 1.11-3.6 2-5.25 1.98-1.71-0.02-3.98-1-5.28-2.27-1.61-1.58-2.28-3.4-2.28-6.23-0.02-3.9-0.36-4.29-13.23-15.19-7.27-6.15-14.45-12.11-18.71-15.31l-0.5 33.16 19.5 14.12c14.29 10.36 20.17 14.06 22 13.89 1.38-0.13 3.91-0.33 5.64-0.45 1.99-0.14 3.92 0.51 5.28 1.78 1.36 1.27 2.13 3.18 2.11 5.25-0.02 1.79-0.42 4.04-0.9 5-0.48 0.96-2.39 2.37-4.25 3.12-2.86 1.16-3.82 1.16-6.26 0-1.59-0.75-3.27-2.16-3.75-3.12-0.48-0.96-0.87-3.1-0.87-4.75 0-2.62-1.16-3.86-9.25-9.86-5.09-3.77-13.64-9.84-19-13.5-5.36-3.65-9.98-6.64-10.25-6.64-0.27 0-0.5 4.5-0.5 10 0 6.83-0.41 10.4-1.28 11.25-0.71 0.69-4.42 2.99-15.22 8.96l2.5 2.21c1.38 1.21 3.85 3.07 5.5 4.12 1.65 1.06 3.5 2.61 4.11 3.44 0.61 0.84 2.98 2.42 5.27 3.52 3.31 1.59 4.4 1.75 5.34 0.75 0.65-0.69 2.44-1.25 3.98-1.25 1.54 0 3.7 0.9 4.8 2 1.1 1.1 2 2.9 2 4 0 1.1-1.12 3.12-2.5 4.5-1.87 1.87-3.19 2.36-5.25 1.96-1.51-0.3-3.56-1.54-4.55-2.75-0.99-1.22-1.56-2.77-1.25-3.46 0.34-0.78-3.32-3.76-9.7-7.88-5.64-3.65-11.15-7.08-12.25-7.62-1.62-0.8-4.6 0.41-29.49 13.75l3.24 3.18c1.79 1.74 7.52 6.55 12.75 10.68 8.27 6.53 9.89 7.43 12.5 6.93 2.24-0.43 3.57-0.03 5.25 1.57 1.29 1.22 2.24 3.31 2.22 4.89-0.01 1.51-0.8 3.55-1.75 4.53-0.94 0.98-2.96 1.77-4.47 1.75-1.52-0.02-3.71-1.04-4.89-2.28q-2.13-2.25-1.75-5.01c0.31-2.19-0.45-3.58-3.61-6.62-2.2-2.11-8.05-7.06-13-11-4.95-3.94-9.23-7.04-9.51-6.89-0.28 0.15-6.58 3.6-14 7.67-7.42 4.06-29.24 16.1-48.49 26.74-27.93 15.44-35.76 19.35-38.75 19.35-2.42 0.01-6.14-1.28-10.5-3.64-3.71-2-14.85-8.15-24.75-13.65-9.9-5.51-25.42-14.28-34.5-19.48-9.07-5.21-18.3-10.49-20.5-11.73-2.2-1.23-5.46-3.42-7.25-4.87-3.17-2.55-3.21-2.7-1.75-5.62 0.83-1.65 1.84-3.01 2.25-3.01 0.41-0.01 2.89 1.34 5.5 3 2.61 1.65 5.2 3.01 5.75 3.01 0.6 0 1-3.83 1-9.5 0-6.91 0.34-9.51 1.25-9.54 0.69-0.03 1.93 0.72 2.75 1.66 1.03 1.17 1.66 4.83 2.5 21.6l7 4.03c3.85 2.21 9.48 5.47 12.5 7.24 3.03 1.77 10.23 5.83 16 9.01 5.78 3.19 15 8.38 20.5 11.53 5.5 3.15 12.81 7.13 22.5 11.97l10.75-5.82c5.91-3.2 22.68-12.39 37.25-20.42 14.58-8.04 42.02-23.13 95.5-52.46l0.65-20.8-15.22-11c-8.37-6.05-17.42-13.47-20.12-16.5-4.33-4.87-5.29-5.47-8.35-5.25-2.57 0.19-4.1-0.39-5.96-2.25-1.37-1.38-2.5-3.4-2.5-4.5 0-1.1 0.56-3.13 1.25-4.52 0.69-1.38 2.38-2.98 3.75-3.54 1.72-0.71 3.36-0.7 5.25 0.02 1.51 0.57 3.5 2.28 4.42 3.79 1.41 2.31 1.49 3.3-0.71 9.75l6.77 6.5c3.72 3.58 11.95 10.17 18.27 14.66 6.33 4.48 11.84 7.97 12.25 7.75 0.41-0.23 0.75-25.38 0.75-55.91 0-43.52-0.27-55.59-1.25-55.9-0.69-0.21-3.16-1.79-5.5-3.5-4.23-3.08-4.24-3.12-2.75-6.1 0.83-1.65 2.06-2.99 2.75-2.98 0.69 0.01 3.73 1.4 6.75 3.09 3.31 1.85 6.3 2.86 7.5 2.53 1.1-0.3 5.49-2.14 9.75-4.09 4.26-1.95 8.04-4.34 8.4-5.3 0.36-0.96 1.33-2.54 2.15-3.5 0.82-0.96 2.78-1.75 4.35-1.75zm-289.4 23.64c0.69 0.2 1.7 0.36 2.25 0.36 0.55 0 1.68 0.67 2.5 1.5 0.82 0.82 1.5 3.07 1.5 5 0 2.42-0.62 3.89-2 4.75-1.86 1.16-2.01 2.32-2 15.5 0 10.91-0.29 14.17-1.25 13.92-0.9-0.24-1.32-4.05-1.52-13.75-0.25-12.74-0.38-13.47-2.47-14.42-1.22-0.55-2.86-2.13-3.66-3.5-1.25-2.17-1.26-2.93-0.03-5.69 0.79-1.76 2.33-3.38 3.43-3.61 1.1-0.23 2.56-0.26 3.25-0.06zm167.57 56.33c1.2-0.02 3 0.77 4.01 1.75 1.29 1.26 1.67 2.66 1.28 4.78-0.29 1.65-0.8 16.05-1.11 32-0.34 17.3-0.96 29.1-1.53 29.25-0.55 0.14-0.97 4.84-0.97 10.75 0 9.17 0.25 10.75 2 12.5 1.1 1.1 1.99 2.79 1.97 3.75-0.01 0.96-0.8 2.55-1.75 3.53-0.94 0.98-2.73 1.77-3.97 1.75-1.24-0.02-2.93-1.04-3.76-2.28-0.83-1.24-1.49-2.93-1.47-3.75 0.02-0.82 0.71-2.18 1.55-3 1.09-1.08 1.65-4.39 1.97-11.75 0.28-6.3 0.07-10.44-0.54-10.75-0.63-0.32-1.01-11.12-1.03-29.25-0.03-23.83-0.29-29.09-1.52-30.75-0.82-1.1-1.52-2.28-1.57-2.62-0.05-0.33 0.89-1.8 2.08-3.25 1.19-1.44 3.15-2.64 4.36-2.66zm-17.86 11.41c1.31 0.87 2.26 2.92 2.66 5.74 0.34 2.41 0.21 20.35-1.19 75.38l2.29 2.31c2.14 2.16 2.18 2.47 0.75 5-1.04 1.82-2.49 2.78-4.5 2.96-1.63 0.16-3.55-0.29-4.26-1-0.72-0.7-1.3-2.4-1.3-3.77 0-1.38 0.76-3.18 1.69-4 1.55-1.37 1.65-4.4 1.14-35.5-0.3-18.7-0.93-34.84-1.4-35.86-0.61-1.35-1.53-1.71-3.34-1.32-1.37 0.3-17.8 6.76-70.5 28.2l0.03 24.49c0.02 13.47 0.36 25.5 0.75 26.74 0.51 1.6 0.14 2.83-1.28 4.25-1.1 1.1-2.79 2.01-3.75 2.02-0.96 0.01-2.55-0.56-3.54-1.25-0.98-0.7-1.72-2.17-1.64-3.27 0.08-1.1 0.32-14.6 0.95-58l2.74-1.37c1.51-0.75 20.49-8.51 42.2-17.24 35.47-14.27 39.66-15.73 41.5-14.51zm-147.81 49.62c1.29 0 3.47 1.13 4.85 2.5 1.45 1.45 2.5 3.66 2.51 5.25 0 1.51-0.67 3.76-1.5 5-0.84 1.25-3.29 2.7-5.51 3.25-3.6 0.9-4.3 1.62-7.02 7.25-1.65 3.44-3.34 8.66-3.75 11.6-0.4 2.95-1.18 5.75-1.73 6.23-0.55 0.48-6.4 2.66-13 4.83-9.87 3.25-12.04 4.32-12.25 6.02-0.14 1.14-1.26 2.75-2.5 3.58-1.24 0.83-3.49 1.5-5 1.5-1.73-0.01-3.31-0.84-4.26-2.26-0.83-1.24-1.5-3.49-1.5-5 0.01-1.51 0.91-3.65 2.01-4.75 1.1-1.1 2.79-2.02 3.75-2.03 0.96-0.02 2.87 0.85 4.25 1.94 2.49 1.98 2.52 1.98 10-0.09 4.12-1.14 9.75-3.08 17.5-6.51l-4.84-2.91c-2.66-1.59-5.59-3.43-6.5-4.07-1.51-1.06-1.43-1.41 0.84-3.78 1.37-1.43 3.17-2.59 4-2.58 0.83 0.01 2.51 0.69 3.75 1.52 1.24 0.83 2.7 1.29 3.25 1.01 0.55-0.28 2.35-3.2 4-6.5 2.83-5.67 2.92-6.17 1.5-9-0.97-1.95-1.24-3.94-0.75-5.66 0.41-1.47 1.83-3.49 3.15-4.5 1.32-1.01 3.46-1.84 4.75-1.84zm306.85 144.14c2.75-0.05 8.15"
        />
      </g>
    </svg>